<svg width="78" height="31" viewBox="0 0 78 31" fill="none" xmlns="http://www.w3.org/2000/svg">
<path d="M59.8954 4.2918C59.6548 4.07002 59.4618 3.80257 59.3279 3.50541C59.194 3.20825 59.1221 2.88746 59.1163 2.56219C59.1105 2.23691 59.171 1.91382 59.2941 1.61217C59.4173 1.31052 59.6007 1.03651 59.8333 0.806466C60.0658 0.576426 60.3429 0.395077 60.6478 0.273237C60.9528 0.151396 61.2795 0.0915618 61.6083 0.0973008C61.9372 0.10304 62.2615 0.174235 62.562 0.306641C62.8624 0.439046 63.1328 0.629949 63.357 0.86796L76.4197 13.7881C76.6476 14.0126 76.8284 14.2794 76.9518 14.5732C77.0752 14.8669 77.1387 15.1819 77.1387 15.5C77.1387 15.8182 77.0752 16.1331 76.9518 16.4269C76.8284 16.7207 76.6476 16.9875 76.4197 17.212L63.357 30.1321C63.1328 30.3701 62.8624 30.561 62.562 30.6934C62.2615 30.8258 61.9372 30.897 61.6083 30.9028C61.2795 30.9085 60.9528 30.8487 60.6478 30.7268C60.3429 30.605 60.0658 30.4237 59.8333 30.1936C59.6007 29.9636 59.4173 29.6896 59.2941 29.3879C59.171 29.0863 59.1105 28.7632 59.1163 28.4379C59.1221 28.1126 59.194 27.7918 59.3279 27.4947C59.4618 27.1975 59.6548 26.9301 59.8954 26.7083L68.778 17.9226L3.1035 16.8258C2.45392 16.8258 1.83094 16.5705 1.37162 16.1162C0.9123 15.6619 0.654243 15.0457 0.654243 14.4032C0.654243 13.7607 0.9123 13.1446 1.37162 12.6902C1.83094 12.2359 2.45392 11.9807 3.1035 11.9807L68.778 13.0775L59.8954 4.2918Z" fill="#29426B"/>
</svg>
