<svg width="77" height="30" viewBox="0 0 77 30" fill="none" xmlns="http://www.w3.org/2000/svg">
<path fill-rule="evenodd" clip-rule="evenodd" d="M52.1847 1.81607C53.3912 -0.0345717 55.8694 -0.556828 57.72 0.649578L74.4744 11.5715C75.6615 12.3453 76.302 13.6424 76.2904 14.9614C76.302 16.2805 75.6615 17.5775 74.4744 18.3513L57.72 29.2733C55.8694 30.4797 53.3912 29.9575 52.1847 28.1068C50.9783 26.2562 51.5006 23.7779 53.3512 22.5715L58.1164 19.4652H4.5C2.01472 19.4652 0 17.4505 0 14.9652C0 12.4799 2.01472 10.4652 4.5 10.4652H58.1279L53.3512 7.35135C51.5006 6.14494 50.9783 3.66671 52.1847 1.81607Z" fill="#29426B"/>
</svg>
